HIERARCHY
ROOT Hips
{
  OFFSET -125.086 92.215 135.881
  CHANNELS 6 Xposition Yposition Zposition Zrotation Xrotation Yrotation
  JOINT LeftUpLeg
  {
    OFFSET 8.64259 1.95398 -2.38835
    CHANNELS 3 Zrotation Xrotation Yrotation
    JOINT LeftLeg
    {
      OFFSET 43.7702 0 0
      CHANNELS 3 Zrotation Xrotation Yrotation
      JOINT LeftFoot
      {
        OFFSET 40.6238 0 0
        CHANNELS 3 Zrotation Xrotation Yrotation
        JOINT LeftToeBase
        {
          OFFSET 12.7242 0 0
          CHANNELS 3 Zrotation Xrotation Yrotation
          End Site
          {
            OFFSET 0 0 0
          }
        }
      }
    }
  }
  JOINT RightUpLeg
  {
    OFFSET -8.2249 1.95398 -2.59336
    CHANNELS 3 Zrotation Xrotation Yrotation
    JOINT RightLeg
    {
      OFFSET 43.5653 0 0
      CHANNELS 3 Zrotation Xrotation Yrotation
      JOINT RightFoot
      {
        OFFSET 40.6238 0 0
        CHANNELS 3 Zrotation Xrotation Yrotation
        JOINT RightToeBase
        {
          OFFSET 12.7242 0 0
          CHANNELS 3 Zrotation Xrotation Yrotation
          End Site
          {
            OFFSET 0 0 0
          }
        }
      }
    }
  }
  JOINT Spine
  {
    OFFSET 0.165834 0.87714 6.61349
    CHANNELS 3 Zrotation Xrotation Yrotation
    JOINT Spine1
    {
      OFFSET 7.38963 1.71661e-005 0
      CHANNELS 3 Zrotation Xrotation Yrotation
      JOINT Spine2
      {
        OFFSET 11.9445 1.14441e-005 0
        CHANNELS 3 Zrotation Xrotation Yrotation
        JOINT Spine3
        {
          OFFSET 14.7254 4.19617e-005 0
          CHANNELS 3 Zrotation Xrotation Yrotation
          JOINT Spine4
          {
            OFFSET 10.9679 0 0
            CHANNELS 3 Zrotation Xrotation Yrotation
            JOINT RightShoulder
            {
              OFFSET 2.46616 -1.6653 3.69651
              CHANNELS 3 Zrotation Xrotation Yrotation
              JOINT RightArm
              {
                OFFSET 13.0012 0 0
                CHANNELS 3 Zrotation Xrotation Yrotation
                JOINT RightForeArm
                {
                  OFFSET 28.7848 1.52588e-005 0
                  CHANNELS 3 Zrotation Xrotation Yrotation
                  JOINT RightHand
                  {
                    OFFSET 26.5688 1.52588e-005 0
                    CHANNELS 3 Zrotation Xrotation Yrotation
                    End Site
                    {
                      OFFSET 0 0 0
                    }
                  }
                }
              }
            }
            JOINT LeftShoulder
            {
              OFFSET 2.38034 -1.29275 -3.7523
              CHANNELS 3 Zrotation Xrotation Yrotation
              JOINT LeftArm
              {
                OFFSET 16.3182 6.10352e-005 0
                CHANNELS 3 Zrotation Xrotation Yrotation
                JOINT LeftForeArm
                {
                  OFFSET 27.0901 0 0
                  CHANNELS 3 Zrotation Xrotation Yrotation
                  JOINT LeftHand
                  {
                    OFFSET 24.5451 1.52588e-005 0
                    CHANNELS 3 Zrotation Xrotation Yrotation
                    End Site
                    {
                      OFFSET 0 0 0
                    }
                  }
                }
              }
            }
            JOINT Neck
            {
              OFFSET 5.0226 -0.0266342 0
              CHANNELS 3 Zrotation Xrotation Yrotation
              JOINT Head
              {
                OFFSET 6.69363 2.86102e-005 0
                CHANNELS 3 Zrotation Xrotation Yrotation
                End Site
                {
                  OFFSET 0 0 0
                }
              }
            }
          }
        }
      }
    }
  }
}
MOTION
Frames:	17
Frame Time:	0.0416667
178.119 98.6756 -184.249 99.0103 53.2275 84.5877 -177.069 6.53398 88.7374 -21.1527 19.6858 3.98716 57.5008 3.19923 13.0816 41.3027 -1.07204 0.731299 176.041 10.1426 89.2843 -27.4872 -7.47259 -0.725755 59.3559 -0.234869 11.6637 37.013 -1.2567 -1.05419 0.00847959 8.07874 -90.2491 10.7159 -0.0978728 -0.486243 -0.95512 -0.119177 -0.481462 -23.4896 0.052795 -0.493172 -3.4769 0.0527951 -0.493166 111.445 -54.7016 -68.5319 28.5303 -2.55532 -15.1095 1.26054 -27.8157 -13.6384 -12.7103 -0.665958 0.933058 -74.1029 -49.563 102.588 -39.1117 0.0236867 -28.5783 3.36604 41.7607 -6.78065 -2.58411 -0.0757154 -12.3728 -33.4321 -14.3088 22.2754 34.964 -21.002 -28.1688 
175.424 96.0385 -180.946 98.0351 54.3466 83.1607 179.878 16.6157 85.8477 -33.5395 16.9939 4.07898 58.6047 4.102 13.3828 43.4456 -1.23339 1.11656 175.001 22.2752 86.724 -42.4032 -6.90807 -0.409913 59.9462 -0.112695 14.5539 36.4245 -1.08942 -3.03022 0.173081 8.66077 -90.14 9.55138 0.281847 -0.296457 -2.11958 0.268506 -0.30858 -24.6548 0.357913 -0.19805 -4.6421 0.357913 -0.198049 110.103 -52.5765 -70.1926 30.4836 -3.75768 -13.403 0.635707 -23.6465 -17 -15.5341 -0.793447 0.754529 -74.8804 -49.2482 101.417 -36.8217 3.26861 -31.1846 6.31377 40.7205 -15.7819 0.168597 -0.262394 -12.1355 -15.0401 -12.6708 41.734 11.451 -20.6097 -51.1456 
172.038 91.8042 -176.476 97.8435 61.1763 80.537 178.237 33.4921 83.0752 -51.2235 18.9431 2.97025 52.9177 0.127867 5.85711 44.9601 -1.30291 2.78295 172.817 34.8246 82.3603 -54.9176 -12.4895 0.360173 55.7796 1.27263 10.5821 46.2258 -2.6672 0.288599 -0.0135269 9.71406 -90.4412 7.45298 -0.217767 -0.87812 -4.21818 -0.256203 -0.867688 -26.7517 0.0562125 -0.902969 -6.73902 0.056225 -0.902967 107.464 -48.9101 -73.794 32.9559 -3.20946 -13.5569 -2.95656 -16.9482 -27.4685 -14.793 -0.77205 0.921273 -75.7763 -51.1361 99.9802 -33.5317 6.41871 -37.3022 9.82542 36.7281 -25.8253 2.26105 -0.474807 -13.6241 19.9165 3.83174 63.7207 -27.4159 -0.673477 -73.0117 
169.043 87.3915 -172.022 104.421 63.7484 75.1426 -177.892 44.2705 82.8817 -66.2366 20.9435 1.6514 49.7721 -1.62468 3.65759 43.8044 -1.19431 6.24605 173.169 40.9047 81.496 -62.9532 -14.6584 0.163994 49.9363 3.93888 9.71627 57.6848 -4.66077 -0.792774 0.123284 11.0217 -91.0824 4.82106 -0.197393 -2.11748 -6.85161 -0.290359 -2.10676 -29.373 0.447961 -2.07897 -9.36033 0.447963 -2.07896 108.514 -50.8645 -72.3789 26.9136 -1.07237 -25.6985 -6.8676 -13.6778 -38.8052 -12.0782 -0.486678 -0.567288 -78.6743 -49.8892 95.5988 -38.5119 6.27878 -40.6848 6.3133 24.946 -17.474 8.86814 -1.09607 -14.6349 38.7969 13.2273 64.2453 -44.9101 10.5068 -77.5781 
165.391 83.391 -169.195 107.733 60.5929 74.9536 -178.992 47.5097 86.4335 -88.1251 16.8587 3.3923 56.2446 3.05026 5.08581 47.3792 -1.19689 8.14461 174.053 44.9552 83.7207 -67.9885 -14.7576 -0.250051 50.7511 3.39602 8.3493 53.9436 -3.92411 -0.042805 0.0175457 11.7483 -91.696 3.35599 -0.639339 -3.32036 -8.31896 -0.784794 -3.28905 -30.8202 0.387504 -3.35903 -10.8076 0.387509 -3.35904 106.541 -48.4516 -75.2073 22.0696 -2.22962 -35.6232 -9.34414 -8.81516 -56.2419 -12.8268 -0.258014 -2.93463 -81.4666 -50.1628 91.3727 -37.7644 3.34364 -40.3017 3.06864 26.8118 -6.44945 4.84212 -0.640159 -13.0717 46.9296 20.2204 63.5229 -53.0375 18.0024 -75.6031 
161.512 81.4042 -166.089 113.646 62.7072 71.7011 173.093 40.7036 93.1515 -102.939 13.1559 4.7069 56.3519 3.90941 6.01071 52.4814 -1.18156 9.16083 172.514 44.617 84.2881 -66.9529 -15.4213 0.644334 55.027 1.20341 3.87291 46.0745 -2.78934 -2.04582 -0.35734 11.6076 -91.8041 3.62107 -1.43538 -3.53116 -8.05373 -1.5893 -3.46469 -30.5508 -0.308651 -3.79892 -10.5382 -0.308646 -3.79891 108.14 -50.1553 -72.8757 22.1802 -3.368 -25.7013 -6.66848 -8.87903 -50.3517 -12.7258 -0.14822 -3.96156 -81.9362 -49.1299 90.587 -32.7713 3.45509 -43.6301 3.984 22.2389 -15.0371 5.82033 -0.719539 -13.1499 45.4964 18.4796 60.53 -52.296 16.9679 -72.4404 
155.877 84.6756 -160.153 118.587 68.5131 65.6498 170.253 33.3889 94.7323 -96.8139 12.5368 5.97163 61.587 7.96403 8.60987 47.6352 -1.24774 6.64032 173.134 38.2186 79.0788 -46.1151 -12.6203 1.00481 47.4107 5.24466 10.3472 34.9961 -0.657894 -5.77579 -0.97812 11.2483 -91.2594 4.35219 -2.46606 -2.45162 -7.31824 -2.57156 -2.34074 -29.8458 -1.61545 -3.079 -9.83317 -1.61544 -3.079 111.568 -55.4207 -68.4633 24.6429 -5.86263 -1.86721 1.62192 -6.54585 -35.0417 -11.8378 -0.24041 -3.02778 -82.0261 -43.8948 89.9943 -29.9389 5.1845 -52.4042 13.4268 15.3108 -47.3395 8.87405 -1.11467 -14.631 37.3491 12.3005 57.8621 -42.4285 8.71281 -69.6476 
145.335 90.1133 -152.826 105.678 64.178 75.0324 173.872 34.2606 88.2248 -77.4683 21.3354 6.05415 60.6521 4.79815 3.59953 50.119 -1.64364 2.59076 174.074 34.9676 76.5651 -25.8879 -11.4216 0.606835 29.7131 10.0523 25.7839 50.5995 -4.53533 -10.5009 -0.495472 11.06 -90.8139 4.73858 -1.32325 -1.58111 -6.93277 -1.39154 -1.52136 -29.461 -0.787068 -1.90559 -9.44837 -0.787049 -1.90559 109.626 -55.7785 -71.3395 28.9778 -6.24021 7.67382 7.04094 1.98338 -33.3439 -14.9954 -0.267402 -3.26271 -81.48 -43.1146 90.8448 -30.8488 5.44766 -54.8756 20.9221 13.1439 -63.0852 12.9364 -1.37898 -14.0249 26.8763 8.57633 66.7397 -29.2009 -1.47845 -72.8868 
134.104 88.045 -146.747 108.822 47.1445 77.3438 175.746 28.3794 87.6467 -66.7655 26.568 7.0483 59.5722 4.46606 11.078 53.7387 -1.65979 4.50562 172.355 41.1201 80.9632 -83.0707 -11.8415 -2.03084 45.7274 4.89214 14.8086 50.3312 -3.76269 -4.3112 0.199488 11.4019 -90.4247 4.07002 0.227113 -0.832869 -7.60117 0.190234 -0.842066 -30.1348 0.466899 -0.726124 -10.1221 0.466903 -0.726128 111.204 -55.1334 -68.9518 24.9754 -4.32831 -10.3591 2.20469 -0.61813 -49.9218 -14.5921 -0.117365 -4.3567 -79.5592 -46.0997 94.1304 -31.4964 -1.9101 -31.3196 15.4752 19.5922 -41.9231 14.1095 -1.44312 -13.6889 24.0083 5.86002 37.2705 -13.711 -4.31176 -38.6952 
123.062 86.1402 -139.742 104.945 35.2767 81.0043 178.685 31.3322 87.5324 -55.894 22.0277 5.17072 58.2898 4.56879 17.2627 46.1437 -1.31525 4.61008 178.491 38.6318 79.7479 -109.831 -21.3804 -4.20154 50.7358 2.72265 11.7091 54.3788 -3.92498 0.667405 0.454056 10.9344 -89.7953 4.99946 0.991366 0.388531 -6.67125 1.00751 0.344513 -29.2073 0.828772 0.668518 -9.1947 0.828763 0.668507 108.854 -49.8951 -71.7355 25.2874 -11.5307 -22.4211 -14.8323 -2.96094 -84.383 -14.0821 0.262863 -7.65756 -76.1571 -51.3423 99.408 -26.5668 -7.03146 -2.31767 4.9054 27.237 -20.1839 12.626 -0.891976 -10.5522 26.5803 4.13692 13.2264 -12.1914 0.121242 -12.5524 
110.781 90.3654 -127.306 98.0241 38.1007 87.094 176.756 35.7731 93.495 -36.9935 20.3959 6.0761 41.567 -7.61065 -3.83958 47.9888 -0.825476 8.63265 169.238 31.9691 90.4195 -78.08 -25.5489 0.393634 48.8624 4.31881 12.6957 60.6291 -4.86501 0.840777 0.715156 10.7175 -90.0516 5.44135 1.40715 -0.127618 -6.22887 1.40018 -0.189447 -28.7699 1.38044 0.301271 -8.7573 1.38046 0.301261 107.521 -48.1211 -73.6157 21.346 -19.9359 -22.0546 -18.8706 -2.43548 -88.2322 -12.321 0.0717378 -6.47882 -77.6458 -50.1871 97.1708 -30.6901 -5.87936 -2.64656 4.2642 23.7112 -19.6801 9.47559 -1.00811 -13.1475 18.9981 0.793541 13.027 0.189172 -3.4834 -7.86746 
98.9709 88.5208 -114.62 105.874 49.5821 79.9006 176.399 38.8392 91.5643 -76.3631 10.3009 4.71947 47.4899 -1.87618 -0.799707 56.2777 -0.598707 14.4644 167.165 28.1797 92.1411 -63.016 -19.6064 4.31722 56.2402 0.157249 2.47705 53.2799 -3.66928 1.68417 0.143223 11.2265 -90.2846 4.42158 0.170466 -0.563988 -7.24945 0.145481 -0.570933 -29.7842 0.332091 -0.486687 -9.77156 0.332072 -0.486688 108.929 -51.3136 -71.7969 24.172 -13.7885 -14.6643 -16.212 -13.5307 -56.49 -10.6765 -0.12811 -4.21392 -79.2837 -48.3655 94.6331 -29.6125 -2.16397 -28.8972 10.3034 28.291 -26.5251 9.84599 -1.06785 -13.4822 19.6234 -0.313135 8.43154 -4.12272 -2.88092 -5.23139 
86.5673 88.532 -102.158 104.173 55.7217 79.9985 177.309 34.2667 93.3046 -101.972 10.5277 4.50538 50.2065 1.04557 6.14291 46.561 -1.22839 7.0846 168.388 33.851 90.5149 -48.371 -15.2038 7.16648 58.8319 -0.903168 -0.06362 27.8239 0.469869 -2.9732 -0.695589 10.8625 -90.1226 5.14719 -1.44037 -0.213788 -6.52296 -1.4484 -0.15017 -29.0635 -1.30954 -0.636872 -9.05085 -1.30951 -0.636864 111.484 -54.5703 -68.4522 29.3574 -6.07835 4.9865 -12.2937 -18.7894 -46.7244 -11.5092 -0.328711 -1.93077 -79.1439 -46.3625 94.7994 -24.7964 -0.461875 -42.7798 15.1987 15.809 -50.5244 9.68232 -1.32871 -16.0562 20.7101 -0.358253 -1.66811 -8.4193 -0.0123888 4.78048 
70.8224 92.6439 -89.0977 94.6982 51.8113 84.5177 179.641 27.8904 88.6116 -77.8107 19.1296 4.66644 54.5767 1.14919 3.22599 55.488 -1.35378 8.15021 174.126 34.1741 85.3023 -22.4159 -10.1895 2.5173 27.1154 11.2018 25.392 50.5883 -4.22797 -9.58413 -0.719303 10.8625 -89.654 5.15149 -1.2941 0.705424 -6.51915 -1.26182 0.761694 -29.0583 -1.44629 0.283822 -9.04568 -1.4463 0.283811 107.787 -52.5519 -73.6734 31.1628 -12.0655 9.37564 -2.75019 -10.1744 -43.8284 -8.42793 0.0381788 -5.9427 -79.5315 -44.476 94.1192 -20.3681 -1.08182 -44.5732 17.6774 11.841 -63.5306 13.1922 -1.55286 -15.0384 30.0122 -0.221938 -6.32637 -14.7087 1.23208 11.5288 
55.0879 89.2743 -77.3164 97.4996 40.3509 83.4785 -178.785 25.9599 86.8783 -63.095 24.4799 4.01765 60.6488 5.01015 8.06677 57.5663 -1.72984 5.57019 172.925 40.3146 84.1438 -83.1209 -17.3749 -1.01303 43.4024 6.02438 16.7013 50.2659 -3.71358 -3.50122 -0.076473 10.9832 -89.5718 4.90635 0.0232926 0.839228 -6.7648 0.0602087 0.837382 -29.2984 -0.230003 0.807432 -9.28572 -0.229992 0.80743 107.628 -50.7039 -73.7242 26.9398 -14.5383 -7.12079 -6.30872 -8.36481 -56.6393 -9.39653 -0.0108213 -5.27116 -78.6583 -47.7493 95.5889 -23.1248 -3.15149 -26.9696 13.6874 21.2817 -41.8658 11.1397 -1.3415 -14.9551 20.2616 1.90613 -8.41956 -7.57462 3.92193 15.9392 
40.4366 87.8866 -64.8101 96.5068 34.1685 85.1751 179.845 32.4999 88.6462 -52.3851 22.2334 4.5236 59.1547 3.90308 13.7407 47.1536 -1.44856 2.73078 -179.531 29.9199 81.6798 -101.639 -27.8396 -5.32825 48.9102 4.13813 12.7685 59.759 -4.97166 -0.688471 0.455126 10.5082 -89.5833 5.85207 1.08401 0.787121 -5.81868 1.11761 0.738643 -28.3537 0.797358 1.07651 -8.34105 0.79736 1.07651 108.232 -49.2167 -72.6167 27.2115 -19.3683 -12.3116 -14.2424 0.888492 -81.7155 -11.0845 -0.0666094 -4.65035 -76.2955 -50.8148 99.2054 -23.7809 -5.48895 0.374469 6.20572 29.9683 -24.8774 7.53592 -0.751559 -11.7876 12.9413 1.46337 -12.8351 -1.13493 5.2004 22.9184 
25.7792 92.2809 -47.8067 90.5799 40.0865 89.6741 177.823 36.1624 93.0728 -28.1614 20.4279 4.97995 38.5772 -8.62102 -8.52174 57.2901 -0.833766 11.852 175.925 23.964 89.5788 -73.1865 -16.4849 -2.38684 54.7187 2.00836 18.1782 54.067 -4.48838 -4.26529 0.322078 10.3522 -89.8562 6.16858 0.704194 0.260376 -5.5022 0.714974 0.229121 -28.0383 0.593381 0.459983 -8.02566 0.593386 0.459976 109.29 -50.1492 -71.0884 22.184 -22.6631 -14.4093 -16.4147 -2.33325 -77.3631 -10.0101 0.0435399 -5.95513 -78.1052 -48.7946 96.4655 -26.565 -5.59526 3.54791 5.98509 26.6678 -25.2716 5.0884 -0.667592 -13.203 29.296 0.993326 -7.49842 -16.8976 2.08719 15.7516 
